<svg width="392" height="230" viewBox="0 0 392 230" fill="none" xmlns="http://www.w3.org/2000/svg">
<rect width="391.547" height="229.64" rx="4" fill="white"/>
<path d="M200.361 128.496C200.361 131.901 200.662 134.394 201.263 135.974C201.985 137.555 203.249 138.65 205.053 139.258C206.978 139.744 209.986 139.987 214.076 139.987H231.4C238.619 139.987 244.514 137.798 249.085 133.421C253.777 128.922 256.845 122.842 258.289 115.181C258.289 114.816 258.589 114.694 259.191 114.816C259.913 114.816 260.274 114.998 260.274 115.363C259.191 125.699 258.649 134.333 258.649 141.264C258.649 142.237 258.469 142.966 258.108 143.453C257.747 143.818 257.025 144 255.943 144H172.21C171.969 144 171.849 143.635 171.849 142.906C171.849 142.176 171.969 141.811 172.21 141.811C176.661 141.811 179.909 141.507 181.954 140.899C184 140.291 185.383 139.136 186.105 137.434C186.827 135.61 187.188 132.874 187.188 129.226V44.7744C187.188 41.1264 186.827 38.4512 186.105 36.7488C185.383 35.0464 184 33.8912 181.954 33.2832C179.909 32.5536 176.661 32.1888 172.21 32.1888C171.969 32.1888 171.849 31.824 171.849 31.0944C171.849 30.3648 171.969 30 172.21 30L181.233 30.1824C186.285 30.4256 190.436 30.5472 193.684 30.5472C197.173 30.5472 201.444 30.4256 206.497 30.1824L215.339 30C215.58 30 215.7 30.3648 215.7 31.0944C215.7 31.824 215.58 32.1888 215.339 32.1888C211.008 32.1888 207.76 32.5536 205.595 33.2832C203.549 33.8912 202.166 35.1072 201.444 36.9312C200.722 38.6336 200.361 41.3088 200.361 44.9568V128.496Z" fill="black"/>
<path d="M256.151 141.811C256.512 141.811 256.693 142.176 256.693 142.906C256.693 143.635 256.512 144 256.151 144C252.301 144 249.294 143.939 247.128 143.818L234.316 143.635L220.42 143.818C218.375 143.939 215.548 144 211.939 144C211.578 144 211.397 143.635 211.397 142.906C211.397 142.176 211.578 141.811 211.939 141.811C216.631 141.811 219.999 141.507 222.044 140.899C224.21 140.291 225.654 139.136 226.375 137.434C227.218 135.61 227.639 132.874 227.639 129.226V86.7264H160.327V129.226C160.327 132.874 160.688 135.61 161.41 137.434C162.252 139.136 163.696 140.291 165.741 140.899C167.907 141.507 171.335 141.811 176.027 141.811C176.268 141.811 176.388 142.176 176.388 142.906C176.388 143.635 176.268 144 176.027 144C172.178 144 169.17 143.939 167.004 143.818L153.47 143.635L140.838 143.818C138.672 143.939 135.605 144 131.635 144C131.394 144 131.274 143.635 131.274 142.906C131.274 142.176 131.394 141.811 131.635 141.811C136.206 141.811 139.515 141.507 141.56 140.899C143.725 140.291 145.169 139.136 145.891 137.434C146.733 135.61 147.154 132.874 147.154 129.226V44.7744C147.154 41.1264 146.733 38.4512 145.891 36.7488C145.169 35.0464 143.725 33.8912 141.56 33.2832C139.515 32.5536 136.266 32.1888 131.815 32.1888C131.574 32.1888 131.454 31.824 131.454 31.0944C131.454 30.3648 131.574 30 131.815 30L141.018 30.1824C146.071 30.4256 150.222 30.5472 153.47 30.5472C157.079 30.5472 161.651 30.4256 167.185 30.1824L176.027 30C176.268 30 176.388 30.3648 176.388 31.0944C176.388 31.824 176.268 32.1888 176.027 32.1888C171.456 32.1888 168.087 32.5536 165.922 33.2832C163.756 34.0128 162.252 35.2896 161.41 37.1136C160.688 38.816 160.327 41.4912 160.327 45.1392V82.7136H227.639V45.1392C227.639 41.4912 227.218 38.816 226.375 37.1136C225.654 35.2896 224.21 34.0128 222.044 33.2832C219.879 32.5536 216.51 32.1888 211.939 32.1888C211.578 32.1888 211.397 31.824 211.397 31.0944C211.397 30.3648 211.578 30 211.939 30L220.42 30.1824C225.714 30.4256 230.346 30.5472 234.316 30.5472C237.564 30.5472 241.835 30.4256 247.128 30.1824L256.151 30C256.512 30 256.693 30.3648 256.693 31.0944C256.693 31.824 256.512 32.1888 256.151 32.1888C251.58 32.1888 248.211 32.5536 246.046 33.2832C244 33.8912 242.557 35.0464 241.715 36.7488C240.993 38.4512 240.632 41.1264 240.632 44.7744V129.226C240.632 132.874 240.993 135.61 241.715 137.434C242.557 139.136 244 140.291 246.046 140.899C248.211 141.507 251.58 141.811 256.151 141.811Z" fill="black"/>
<path d="M68.88 208.64C68.9867 208.64 69.04 208.72 69.04 208.88C69.04 209.04 68.9867 209.12 68.88 209.12C68.24 209.12 67.7333 209.107 67.36 209.08L65.2 209.04L63 209.08C62.6 209.107 62.08 209.12 61.44 209.12C61.3867 209.12 61.36 209.04 61.36 208.88C61.36 208.72 61.3867 208.64 61.44 208.64C62.4533 208.64 63.12 208.467 63.44 208.12C63.76 207.747 63.92 207 63.92 205.88V199.64C63.92 198.093 63.6267 196.947 63.04 196.2C62.4533 195.427 61.5467 195.04 60.32 195.04C59.5467 195.04 58.7467 195.253 57.92 195.68C57.0933 196.08 56.3467 196.64 55.68 197.36V205.88C55.68 207 55.84 207.747 56.16 208.12C56.48 208.467 57.1333 208.64 58.12 208.64C58.2267 208.64 58.28 208.72 58.28 208.88C58.28 209.04 58.2267 209.12 58.12 209.12C57.48 209.12 56.9733 209.107 56.6 209.08L54.44 209.04L52.24 209.08C51.84 209.107 51.32 209.12 50.68 209.12C50.6267 209.12 50.6 209.04 50.6 208.88C50.6 208.72 50.6267 208.64 50.68 208.64C51.6933 208.64 52.36 208.467 52.68 208.12C53 207.747 53.16 207 53.16 205.88V185.36C53.16 185.013 52.96 184.84 52.56 184.84H46.28C45.2133 184.84 44.44 184.907 43.96 185.04C43.5067 185.147 43.1867 185.373 43 185.72C42.84 186.067 42.76 186.64 42.76 187.44V205.88C42.76 206.707 42.84 207.307 43 207.68C43.1867 208.053 43.5333 208.307 44.04 208.44C44.5733 208.573 45.4133 208.64 46.56 208.64C46.6133 208.64 46.64 208.72 46.64 208.88C46.64 209.04 46.6133 209.12 46.56 209.12C45.6533 209.12 44.9333 209.107 44.4 209.08L41.24 209.04L38.2 209.08C37.6667 209.107 36.92 209.12 35.96 209.12C35.9067 209.12 35.88 209.04 35.88 208.88C35.88 208.72 35.9067 208.64 35.96 208.64C37.08 208.64 37.9067 208.573 38.44 208.44C38.9733 208.307 39.3333 208.053 39.52 207.68C39.7067 207.28 39.8 206.68 39.8 205.88V187.36C39.8 186.56 39.7067 186 39.52 185.68C39.36 185.333 39.04 185.107 38.56 185C38.1067 184.893 37.3333 184.84 36.24 184.84C34.5867 184.84 33.3067 185.293 32.4 186.2C31.52 187.08 30.88 188.547 30.48 190.6C30.4533 190.68 30.36 190.72 30.2 190.72C30.0667 190.693 30 190.653 30 190.6C30.1067 189.853 30.2267 188.653 30.36 187C30.4933 185.347 30.56 184.093 30.56 183.24C30.56 183.107 30.64 183.04 30.8 183.04C30.96 183.04 31.04 183.107 31.04 183.24C31.04 183.827 31.76 184.12 33.2 184.12C34.72 184.173 37.4 184.2 41.24 184.2C45.1067 184.2 47.68 184.173 48.96 184.12C50.6133 184.067 51.96 183.693 53 183C54.0667 182.307 54.7733 181.347 55.12 180.12C55.12 180.04 55.2 180 55.36 180C55.44 180 55.5067 180.013 55.56 180.04C55.64 180.067 55.68 180.107 55.68 180.16V196.64C56.6667 195.493 57.6667 194.64 58.68 194.08C59.6933 193.52 60.7467 193.24 61.84 193.24C63.28 193.24 64.4 193.667 65.2 194.52C66.0267 195.373 66.44 196.587 66.44 198.16V205.88C66.44 207 66.6 207.747 66.92 208.12C67.24 208.467 67.8933 208.64 68.88 208.64Z" fill="black"/>
<path d="M84.3291 206.8C84.4091 206.8 84.4757 206.853 84.5291 206.96C84.6091 207.04 84.6224 207.12 84.5691 207.2C82.7824 208.8 80.8091 209.6 78.6491 209.6C77.0757 209.6 75.7291 209.253 74.6091 208.56C73.4891 207.84 72.6357 206.893 72.0491 205.72C71.4624 204.52 71.1691 203.24 71.1691 201.88C71.1691 200.307 71.5424 198.867 72.2891 197.56C73.0624 196.253 74.1024 195.227 75.4091 194.48C76.7157 193.707 78.1557 193.32 79.7291 193.32C81.2757 193.32 82.4491 193.72 83.2491 194.52C84.0757 195.293 84.4891 196.413 84.4891 197.88C84.4891 198.6 84.3291 198.96 84.0091 198.96L74.1291 199C74.0757 199.587 74.0491 200.04 74.0491 200.36C74.0491 202.68 74.5957 204.547 75.6891 205.96C76.7824 207.373 78.3291 208.08 80.3291 208.08C81.1291 208.08 81.7957 207.987 82.3291 207.8C82.8891 207.587 83.5424 207.253 84.2891 206.8H84.3291ZM78.3691 194.12C77.2491 194.12 76.3291 194.507 75.6091 195.28C74.8891 196.027 74.4224 197.08 74.2091 198.44L81.4891 198.28C81.4891 196.92 81.2091 195.893 80.6491 195.2C80.1157 194.48 79.3557 194.12 78.3691 194.12Z" fill="black"/>
<path d="M103.111 205.72C103.111 206.467 103.178 207.013 103.311 207.36C103.471 207.707 103.751 207.947 104.151 208.08C104.578 208.187 105.245 208.24 106.151 208.24H109.991C111.591 208.24 112.898 207.76 113.911 206.8C114.951 205.813 115.631 204.48 115.951 202.8C115.951 202.72 116.018 202.693 116.151 202.72C116.311 202.72 116.391 202.76 116.391 202.84C116.151 205.107 116.031 207 116.031 208.52C116.031 208.733 115.991 208.893 115.911 209C115.831 209.08 115.671 209.12 115.431 209.12H96.8712C96.8179 209.12 96.7913 209.04 96.7913 208.88C96.7913 208.72 96.8179 208.64 96.8712 208.64C97.8579 208.64 98.5779 208.573 99.0312 208.44C99.4846 208.307 99.7912 208.053 99.9512 207.68C100.111 207.28 100.191 206.68 100.191 205.88V187.36C100.191 186.56 100.111 185.973 99.9512 185.6C99.7912 185.227 99.4846 184.973 99.0312 184.84C98.5779 184.68 97.8579 184.6 96.8712 184.6C96.8179 184.6 96.7913 184.52 96.7913 184.36C96.7913 184.2 96.8179 184.12 96.8712 184.12L98.8712 184.16C99.9912 184.213 100.911 184.24 101.631 184.24C102.405 184.24 103.351 184.213 104.471 184.16L106.431 184.12C106.485 184.12 106.511 184.2 106.511 184.36C106.511 184.52 106.485 184.6 106.431 184.6C105.471 184.6 104.751 184.68 104.271 184.84C103.818 184.973 103.511 185.24 103.351 185.64C103.191 186.013 103.111 186.6 103.111 187.4V205.72Z" fill="black"/>
<path d="M131.478 206.8C131.558 206.8 131.624 206.853 131.677 206.96C131.757 207.04 131.771 207.12 131.717 207.2C129.931 208.8 127.957 209.6 125.798 209.6C124.224 209.6 122.878 209.253 121.757 208.56C120.637 207.84 119.784 206.893 119.198 205.72C118.611 204.52 118.317 203.24 118.317 201.88C118.317 200.307 118.691 198.867 119.438 197.56C120.211 196.253 121.251 195.227 122.558 194.48C123.864 193.707 125.304 193.32 126.878 193.32C128.424 193.32 129.597 193.72 130.397 194.52C131.224 195.293 131.638 196.413 131.638 197.88C131.638 198.6 131.478 198.96 131.158 198.96L121.277 199C121.224 199.587 121.198 200.04 121.198 200.36C121.198 202.68 121.744 204.547 122.838 205.96C123.931 207.373 125.478 208.08 127.478 208.08C128.278 208.08 128.944 207.987 129.478 207.8C130.037 207.587 130.691 207.253 131.438 206.8H131.478ZM125.518 194.12C124.397 194.12 123.478 194.507 122.757 195.28C122.037 196.027 121.571 197.08 121.357 198.44L128.637 198.28C128.637 196.92 128.357 195.893 127.798 195.2C127.264 194.48 126.504 194.12 125.518 194.12Z" fill="black"/>
<path d="M163.085 208.64C163.191 208.64 163.245 208.72 163.245 208.88C163.245 209.04 163.191 209.12 163.085 209.12C162.471 209.12 161.978 209.107 161.605 209.08L159.365 209.04L157.205 209.08C156.831 209.107 156.311 209.12 155.645 209.12C155.591 209.12 155.565 209.04 155.565 208.88C155.565 208.72 155.591 208.64 155.645 208.64C156.658 208.64 157.325 208.467 157.645 208.12C157.965 207.747 158.125 207 158.125 205.88V199.64C158.125 198.067 157.845 196.907 157.285 196.16C156.751 195.413 155.911 195.04 154.765 195.04C153.991 195.04 153.205 195.253 152.405 195.68C151.631 196.107 150.925 196.68 150.285 197.4V205.88C150.285 207 150.445 207.747 150.765 208.12C151.085 208.467 151.751 208.64 152.765 208.64C152.818 208.64 152.845 208.72 152.845 208.88C152.845 209.04 152.818 209.12 152.765 209.12C152.098 209.12 151.578 209.107 151.205 209.08L149.005 209.04L146.845 209.08C146.471 209.107 145.965 209.12 145.325 209.12C145.245 209.12 145.205 209.04 145.205 208.88C145.205 208.72 145.245 208.64 145.325 208.64C146.311 208.64 146.965 208.467 147.285 208.12C147.605 207.747 147.765 207 147.765 205.88V199.64C147.765 198.067 147.485 196.907 146.925 196.16C146.391 195.413 145.551 195.04 144.405 195.04C143.631 195.04 142.858 195.24 142.085 195.64C141.338 196.04 140.645 196.6 140.005 197.32V205.88C140.005 206.653 140.058 207.24 140.165 207.64C140.298 208.013 140.538 208.28 140.885 208.44C141.231 208.573 141.751 208.64 142.445 208.64C142.525 208.64 142.565 208.72 142.565 208.88C142.565 209.04 142.525 209.12 142.445 209.12C141.778 209.12 141.258 209.107 140.885 209.08L138.725 209.04L136.565 209.08C136.191 209.107 135.685 209.12 135.045 209.12C134.965 209.12 134.925 209.04 134.925 208.88C134.925 208.72 134.965 208.64 135.045 208.64C135.738 208.64 136.245 208.573 136.565 208.44C136.911 208.28 137.138 208.013 137.245 207.64C137.378 207.24 137.445 206.653 137.445 205.88V198.04C137.445 197.16 137.338 196.52 137.125 196.12C136.911 195.72 136.565 195.52 136.085 195.52C135.685 195.52 134.978 195.72 133.965 196.12H133.925C133.818 196.12 133.738 196.067 133.685 195.96C133.631 195.827 133.658 195.733 133.765 195.68L138.565 193.36L138.805 193.32C139.071 193.32 139.325 193.627 139.565 194.24C139.831 194.827 139.978 195.613 140.005 196.6C141.845 194.36 143.805 193.24 145.885 193.24C147.085 193.24 148.058 193.547 148.805 194.16C149.551 194.747 150.018 195.613 150.205 196.76C151.191 195.56 152.178 194.68 153.165 194.12C154.151 193.533 155.178 193.24 156.245 193.24C157.658 193.24 158.738 193.653 159.485 194.48C160.258 195.307 160.645 196.533 160.645 198.16V205.88C160.645 206.653 160.698 207.24 160.805 207.64C160.938 208.013 161.178 208.28 161.525 208.44C161.871 208.573 162.391 208.64 163.085 208.64Z" fill="black"/>
<path d="M169.39 188.76C168.803 188.76 168.336 188.6 167.99 188.28C167.67 187.96 167.51 187.507 167.51 186.92C167.51 186.387 167.67 185.96 167.99 185.64C168.336 185.32 168.803 185.16 169.39 185.16C169.95 185.16 170.39 185.32 170.71 185.64C171.03 185.96 171.19 186.387 171.19 186.92C171.19 187.507 171.03 187.96 170.71 188.28C170.39 188.6 169.95 188.76 169.39 188.76ZM165.95 209.12C165.87 209.12 165.83 209.04 165.83 208.88C165.83 208.72 165.87 208.64 165.95 208.64C166.936 208.64 167.59 208.467 167.91 208.12C168.23 207.747 168.39 207 168.39 205.88V198.44C168.39 197.507 168.296 196.827 168.11 196.4C167.923 195.973 167.59 195.76 167.11 195.76C166.656 195.76 166.07 195.947 165.35 196.32H165.31C165.203 196.32 165.123 196.253 165.07 196.12C165.016 195.987 165.043 195.893 165.15 195.84L170.47 193.36L170.63 193.32C170.71 193.32 170.79 193.36 170.87 193.44C170.976 193.52 171.03 193.6 171.03 193.68C171.03 193.867 171.016 194.4 170.99 195.28C170.963 196.16 170.95 197.2 170.95 198.4V205.88C170.95 206.653 171.003 207.24 171.11 207.64C171.243 208.013 171.483 208.28 171.83 208.44C172.176 208.573 172.696 208.64 173.39 208.64C173.47 208.64 173.51 208.72 173.51 208.88C173.51 209.04 173.47 209.12 173.39 209.12C172.723 209.12 172.203 209.107 171.83 209.08L169.67 209.04L167.43 209.08C167.056 209.107 166.563 209.12 165.95 209.12Z" fill="black"/>
<path d="M194.689 208.64C194.769 208.64 194.809 208.72 194.809 208.88C194.809 209.04 194.769 209.12 194.689 209.12C194.022 209.12 193.502 209.107 193.129 209.08L190.969 209.04L188.809 209.08C188.436 209.107 187.929 209.12 187.289 209.12C187.209 209.12 187.169 209.04 187.169 208.88C187.169 208.72 187.209 208.64 187.289 208.64C187.982 208.64 188.489 208.573 188.809 208.44C189.156 208.28 189.382 208.013 189.489 207.64C189.622 207.24 189.689 206.653 189.689 205.88V199.52C189.689 197.973 189.396 196.84 188.809 196.12C188.249 195.373 187.342 195 186.089 195C185.316 195 184.516 195.2 183.689 195.6C182.889 196 182.156 196.56 181.489 197.28V205.88C181.489 206.653 181.542 207.24 181.649 207.64C181.782 208.013 182.022 208.28 182.369 208.44C182.716 208.573 183.236 208.64 183.929 208.64C184.009 208.64 184.049 208.72 184.049 208.88C184.049 209.04 184.009 209.12 183.929 209.12C183.262 209.12 182.742 209.107 182.369 209.08L180.209 209.04L178.049 209.08C177.676 209.107 177.169 209.12 176.529 209.12C176.449 209.12 176.409 209.04 176.409 208.88C176.409 208.72 176.449 208.64 176.529 208.64C177.222 208.64 177.729 208.573 178.049 208.44C178.396 208.28 178.622 208.013 178.729 207.64C178.862 207.24 178.929 206.653 178.929 205.88V198.04C178.929 197.16 178.822 196.52 178.609 196.12C178.396 195.72 178.049 195.52 177.569 195.52C177.169 195.52 176.462 195.72 175.449 196.12H175.409C175.302 196.12 175.222 196.067 175.169 195.96C175.116 195.827 175.142 195.733 175.249 195.68L180.049 193.36L180.289 193.32C180.556 193.32 180.809 193.627 181.049 194.24C181.316 194.827 181.462 195.613 181.489 196.6C183.436 194.307 185.476 193.16 187.609 193.16C189.076 193.16 190.209 193.587 191.009 194.44C191.836 195.293 192.249 196.507 192.249 198.08V205.88C192.249 206.653 192.302 207.24 192.409 207.64C192.542 208.013 192.782 208.28 193.129 208.44C193.476 208.573 193.996 208.64 194.689 208.64Z" fill="black"/>
<path d="M224.471 208.64C224.551 208.64 224.591 208.72 224.591 208.88C224.591 209.04 224.551 209.12 224.471 209.12C223.618 209.12 222.951 209.107 222.471 209.08L219.631 209.04L216.551 209.08C216.098 209.107 215.471 209.12 214.671 209.12C214.591 209.12 214.551 209.04 214.551 208.88C214.551 208.72 214.591 208.64 214.671 208.64C215.711 208.64 216.458 208.573 216.911 208.44C217.391 208.307 217.711 208.053 217.871 207.68C218.058 207.28 218.151 206.68 218.151 205.88V196.56H203.231V205.88C203.231 206.68 203.311 207.28 203.471 207.68C203.658 208.053 203.978 208.307 204.431 208.44C204.911 208.573 205.671 208.64 206.711 208.64C206.765 208.64 206.791 208.72 206.791 208.88C206.791 209.04 206.765 209.12 206.711 209.12C205.858 209.12 205.191 209.107 204.711 209.08L201.711 209.04L198.911 209.08C198.431 209.107 197.751 209.12 196.871 209.12C196.818 209.12 196.791 209.04 196.791 208.88C196.791 208.72 196.818 208.64 196.871 208.64C197.885 208.64 198.618 208.573 199.071 208.44C199.551 208.307 199.871 208.053 200.031 207.68C200.218 207.28 200.311 206.68 200.311 205.88V187.36C200.311 186.56 200.218 185.973 200.031 185.6C199.871 185.227 199.551 184.973 199.071 184.84C198.618 184.68 197.898 184.6 196.911 184.6C196.858 184.6 196.831 184.52 196.831 184.36C196.831 184.2 196.858 184.12 196.911 184.12L198.951 184.16C200.071 184.213 200.991 184.24 201.711 184.24C202.511 184.24 203.525 184.213 204.751 184.16L206.711 184.12C206.765 184.12 206.791 184.2 206.791 184.36C206.791 184.52 206.765 184.6 206.711 184.6C205.698 184.6 204.951 184.68 204.471 184.84C203.991 185 203.658 185.28 203.471 185.68C203.311 186.053 203.231 186.64 203.231 187.44V195.68H218.151V187.44C218.151 186.64 218.058 186.053 217.871 185.68C217.711 185.28 217.391 185 216.911 184.84C216.431 184.68 215.685 184.6 214.671 184.6C214.591 184.6 214.551 184.52 214.551 184.36C214.551 184.2 214.591 184.12 214.671 184.12L216.551 184.16C217.725 184.213 218.751 184.24 219.631 184.24C220.351 184.24 221.298 184.213 222.471 184.16L224.471 184.12C224.551 184.12 224.591 184.2 224.591 184.36C224.591 184.52 224.551 184.6 224.471 184.6C223.458 184.6 222.711 184.68 222.231 184.84C221.778 184.973 221.458 185.227 221.271 185.6C221.111 185.973 221.031 186.56 221.031 187.36V205.88C221.031 206.68 221.111 207.28 221.271 207.68C221.458 208.053 221.778 208.307 222.231 208.44C222.711 208.573 223.458 208.64 224.471 208.64Z" fill="black"/>
<path d="M242.542 206.96C242.649 206.96 242.715 207.027 242.742 207.16C242.769 207.267 242.729 207.347 242.622 207.4L238.502 209.36C238.395 209.413 238.275 209.44 238.142 209.44C237.795 209.44 237.475 209.213 237.182 208.76C236.915 208.28 236.729 207.64 236.622 206.84L234.622 208.16C233.982 208.613 233.395 208.933 232.862 209.12C232.355 209.307 231.809 209.4 231.222 209.4C230.209 209.4 229.422 209.147 228.862 208.64C228.302 208.107 228.022 207.44 228.022 206.64C228.022 205.787 228.355 205.08 229.022 204.52C229.715 203.933 230.809 203.36 232.302 202.8L236.582 201.24V198.6C236.582 197 236.369 195.84 235.942 195.12C235.542 194.4 234.942 194.04 234.142 194.04C233.262 194.04 232.595 194.347 232.142 194.96C231.689 195.573 231.395 196.267 231.262 197.04C231.102 198.213 230.555 198.8 229.622 198.8C229.142 198.8 228.782 198.68 228.542 198.44C228.302 198.2 228.182 197.907 228.182 197.56C228.182 196.893 228.595 196.227 229.422 195.56C230.275 194.893 231.289 194.347 232.462 193.92C233.662 193.493 234.715 193.28 235.622 193.28C236.715 193.28 237.555 193.64 238.142 194.36C238.755 195.053 239.062 196.067 239.062 197.4V204.8C239.062 205.707 239.182 206.373 239.422 206.8C239.689 207.227 240.089 207.44 240.622 207.44C241.102 207.44 241.715 207.28 242.462 206.96H242.542ZM236.582 206.24V201.8L233.222 203.16C232.502 203.427 231.955 203.76 231.582 204.16C231.209 204.533 231.022 205.013 231.022 205.6C231.022 206.24 231.222 206.773 231.622 207.2C232.049 207.6 232.582 207.8 233.222 207.8C233.755 207.8 234.355 207.6 235.022 207.2L236.582 206.24Z" fill="black"/>
<path d="M262.619 208.64C262.699 208.64 262.739 208.72 262.739 208.88C262.739 209.04 262.699 209.12 262.619 209.12C261.952 209.12 261.432 209.107 261.059 209.08L258.899 209.04L256.739 209.08C256.365 209.107 255.859 209.12 255.219 209.12C255.139 209.12 255.099 209.04 255.099 208.88C255.099 208.72 255.139 208.64 255.219 208.64C255.912 208.64 256.419 208.573 256.739 208.44C257.085 208.28 257.312 208.013 257.419 207.64C257.552 207.24 257.619 206.653 257.619 205.88V199.52C257.619 197.973 257.325 196.84 256.739 196.12C256.179 195.373 255.272 195 254.019 195C253.245 195 252.445 195.2 251.619 195.6C250.819 196 250.085 196.56 249.419 197.28V205.88C249.419 206.653 249.472 207.24 249.579 207.64C249.712 208.013 249.952 208.28 250.299 208.44C250.645 208.573 251.165 208.64 251.859 208.64C251.939 208.64 251.979 208.72 251.979 208.88C251.979 209.04 251.939 209.12 251.859 209.12C251.192 209.12 250.672 209.107 250.299 209.08L248.139 209.04L245.979 209.08C245.605 209.107 245.099 209.12 244.459 209.12C244.379 209.12 244.339 209.04 244.339 208.88C244.339 208.72 244.379 208.64 244.459 208.64C245.152 208.64 245.659 208.573 245.979 208.44C246.325 208.28 246.552 208.013 246.659 207.64C246.792 207.24 246.859 206.653 246.859 205.88V198.04C246.859 197.16 246.752 196.52 246.539 196.12C246.325 195.72 245.979 195.52 245.499 195.52C245.099 195.52 244.392 195.72 243.379 196.12H243.339C243.232 196.12 243.152 196.067 243.099 195.96C243.045 195.827 243.072 195.733 243.179 195.68L247.979 193.36L248.219 193.32C248.485 193.32 248.739 193.627 248.979 194.24C249.245 194.827 249.392 195.613 249.419 196.6C251.365 194.307 253.405 193.16 255.539 193.16C257.005 193.16 258.139 193.587 258.939 194.44C259.765 195.293 260.179 196.507 260.179 198.08V205.88C260.179 206.653 260.232 207.24 260.339 207.64C260.472 208.013 260.712 208.28 261.059 208.44C261.405 208.573 261.925 208.64 262.619 208.64Z" fill="black"/>
<path d="M301.776 208.64C301.856 208.64 301.896 208.72 301.896 208.88C301.896 209.04 301.856 209.12 301.776 209.12C300.923 209.12 300.256 209.107 299.776 209.08L296.936 209.04L293.856 209.08C293.403 209.107 292.776 209.12 291.976 209.12C291.896 209.12 291.856 209.04 291.856 208.88C291.856 208.72 291.896 208.64 291.976 208.64C293.016 208.64 293.763 208.573 294.216 208.44C294.696 208.307 295.016 208.053 295.176 207.68C295.363 207.28 295.456 206.68 295.456 205.88V196.56H280.536V205.88C280.536 206.68 280.616 207.28 280.776 207.68C280.963 208.053 281.283 208.307 281.736 208.44C282.216 208.573 282.976 208.64 284.016 208.64C284.069 208.64 284.096 208.72 284.096 208.88C284.096 209.04 284.069 209.12 284.016 209.12C283.163 209.12 282.496 209.107 282.016 209.08L279.016 209.04L276.216 209.08C275.736 209.107 275.056 209.12 274.176 209.12C274.123 209.12 274.096 209.04 274.096 208.88C274.096 208.72 274.123 208.64 274.176 208.64C275.189 208.64 275.923 208.573 276.376 208.44C276.856 208.307 277.176 208.053 277.336 207.68C277.523 207.28 277.616 206.68 277.616 205.88V187.36C277.616 186.56 277.523 185.973 277.336 185.6C277.176 185.227 276.856 184.973 276.376 184.84C275.923 184.68 275.203 184.6 274.216 184.6C274.163 184.6 274.136 184.52 274.136 184.36C274.136 184.2 274.163 184.12 274.216 184.12L276.256 184.16C277.376 184.213 278.296 184.24 279.016 184.24C279.816 184.24 280.829 184.213 282.056 184.16L284.016 184.12C284.069 184.12 284.096 184.2 284.096 184.36C284.096 184.52 284.069 184.6 284.016 184.6C283.003 184.6 282.256 184.68 281.776 184.84C281.296 185 280.963 185.28 280.776 185.68C280.616 186.053 280.536 186.64 280.536 187.44V195.68H295.456V187.44C295.456 186.64 295.363 186.053 295.176 185.68C295.016 185.28 294.696 185 294.216 184.84C293.736 184.68 292.989 184.6 291.976 184.6C291.896 184.6 291.856 184.52 291.856 184.36C291.856 184.2 291.896 184.12 291.976 184.12L293.856 184.16C295.029 184.213 296.056 184.24 296.936 184.24C297.656 184.24 298.603 184.213 299.776 184.16L301.776 184.12C301.856 184.12 301.896 184.2 301.896 184.36C301.896 184.52 301.856 184.6 301.776 184.6C300.763 184.6 300.016 184.68 299.536 184.84C299.083 184.973 298.763 185.227 298.576 185.6C298.416 185.973 298.336 186.56 298.336 187.36V205.88C298.336 206.68 298.416 207.28 298.576 207.68C298.763 208.053 299.083 208.307 299.536 208.44C300.016 208.573 300.763 208.64 301.776 208.64Z" fill="black"/>
<path d="M312.487 209.64C310.913 209.64 309.527 209.267 308.327 208.52C307.153 207.747 306.233 206.72 305.567 205.44C304.927 204.133 304.607 202.72 304.607 201.2C304.607 199.467 305.033 198 305.887 196.8C306.74 195.573 307.82 194.667 309.127 194.08C310.46 193.467 311.82 193.16 313.207 193.16C314.78 193.16 316.153 193.547 317.327 194.32C318.527 195.093 319.447 196.12 320.087 197.4C320.727 198.653 321.047 199.987 321.047 201.4C321.047 203.053 320.66 204.507 319.887 205.76C319.113 206.987 318.073 207.947 316.767 208.64C315.46 209.307 314.033 209.64 312.487 209.64ZM313.647 208.88C315.033 208.88 316.1 208.36 316.847 207.32C317.62 206.28 318.007 204.693 318.007 202.56C318.007 200.88 317.74 199.387 317.207 198.08C316.673 196.773 315.94 195.76 315.007 195.04C314.073 194.32 313.033 193.96 311.887 193.96C310.527 193.96 309.473 194.467 308.727 195.48C307.98 196.493 307.607 197.973 307.607 199.92C307.607 201.573 307.86 203.093 308.367 204.48C308.9 205.84 309.62 206.92 310.527 207.72C311.433 208.493 312.473 208.88 313.647 208.88Z" fill="black"/>
<path d="M335.024 206.92C335.104 206.92 335.171 206.987 335.224 207.12C335.278 207.227 335.264 207.307 335.184 207.36C334.198 208.16 333.304 208.733 332.504 209.08C331.704 209.427 330.851 209.6 329.944 209.6C328.824 209.6 327.891 209.347 327.144 208.84C326.424 208.307 326.064 207.44 326.064 206.24V196.92C326.064 196.28 326.011 195.813 325.904 195.52C325.798 195.2 325.598 194.987 325.304 194.88C325.038 194.773 324.598 194.72 323.984 194.72C323.904 194.72 323.864 194.627 323.864 194.44C323.864 194.253 323.904 194.16 323.984 194.16C325.104 194.133 326.011 193.853 326.704 193.32C327.424 192.787 327.864 192.04 328.024 191.08C328.051 191 328.158 190.96 328.344 190.96C328.531 190.96 328.624 191 328.624 191.08V194.12C329.904 194.093 331.731 193.96 334.104 193.72C334.184 193.72 334.251 193.813 334.304 194C334.358 194.187 334.384 194.4 334.384 194.64C334.384 194.88 334.344 195.12 334.264 195.36C334.184 195.573 334.091 195.667 333.984 195.64C332.491 195.293 330.704 195.093 328.624 195.04V204.88C328.624 207.013 329.664 208.08 331.744 208.08C332.864 208.08 333.931 207.707 334.944 206.96L335.024 206.92Z" fill="black"/>
<path d="M350.54 206.8C350.62 206.8 350.687 206.853 350.74 206.96C350.82 207.04 350.833 207.12 350.78 207.2C348.993 208.8 347.02 209.6 344.86 209.6C343.287 209.6 341.94 209.253 340.82 208.56C339.7 207.84 338.847 206.893 338.26 205.72C337.673 204.52 337.38 203.24 337.38 201.88C337.38 200.307 337.753 198.867 338.5 197.56C339.273 196.253 340.313 195.227 341.62 194.48C342.927 193.707 344.367 193.32 345.94 193.32C347.487 193.32 348.66 193.72 349.46 194.52C350.287 195.293 350.7 196.413 350.7 197.88C350.7 198.6 350.54 198.96 350.22 198.96L340.34 199C340.287 199.587 340.26 200.04 340.26 200.36C340.26 202.68 340.807 204.547 341.9 205.96C342.993 207.373 344.54 208.08 346.54 208.08C347.34 208.08 348.007 207.987 348.54 207.8C349.1 207.587 349.753 207.253 350.5 206.8H350.54ZM344.58 194.12C343.46 194.12 342.54 194.507 341.82 195.28C341.1 196.027 340.633 197.08 340.42 198.44L347.7 198.28C347.7 196.92 347.42 195.893 346.86 195.2C346.327 194.48 345.567 194.12 344.58 194.12Z" fill="black"/>
<path d="M353.907 209.12C353.827 209.12 353.787 209.04 353.787 208.88C353.787 208.72 353.827 208.64 353.907 208.64C354.894 208.64 355.547 208.467 355.867 208.12C356.187 207.747 356.347 207 356.347 205.88V185.28C356.347 184.32 356.254 183.627 356.067 183.2C355.907 182.773 355.601 182.56 355.147 182.56C354.747 182.56 354.147 182.747 353.347 183.12H353.307C353.201 183.12 353.107 183.053 353.027 182.92C352.974 182.76 353.001 182.667 353.107 182.64L358.387 180.16L358.547 180.12C358.627 180.12 358.721 180.16 358.827 180.24C358.934 180.32 358.987 180.4 358.987 180.48V205.88C358.987 207 359.134 207.747 359.427 208.12C359.747 208.467 360.414 208.64 361.427 208.64C361.507 208.64 361.547 208.72 361.547 208.88C361.547 209.04 361.507 209.12 361.427 209.12C360.787 209.12 360.267 209.107 359.867 209.08L357.667 209.04L355.427 209.08C355.054 209.107 354.547 209.12 353.907 209.12Z" fill="black"/>
</svg>
