<svg width="130" height="114" viewBox="0 0 130 114" fill="none" xmlns="http://www.w3.org/2000/svg">
<path d="M69.3612 98.496C69.3612 101.901 69.662 104.394 70.2635 105.974C70.9853 107.555 72.2485 108.65 74.0531 109.258C75.978 109.744 78.9857 109.987 83.0761 109.987H100.4C107.619 109.987 113.514 107.798 118.085 103.421C122.777 98.9216 125.845 92.8416 127.289 85.1808C127.289 84.816 127.589 84.6944 128.191 84.816C128.913 84.816 129.274 84.9984 129.274 85.3632C128.191 95.6992 127.649 104.333 127.649 111.264C127.649 112.237 127.469 112.966 127.108 113.453C126.747 113.818 126.025 114 124.943 114H41.2096C40.969 114 40.8487 113.635 40.8487 112.906C40.8487 112.176 40.969 111.811 41.2096 111.811C45.6609 111.811 48.9092 111.507 50.9544 110.899C52.9996 110.291 54.3831 109.136 55.1049 107.434C55.8268 105.61 56.1877 102.874 56.1877 99.2256V14.7744C56.1877 11.1264 55.8268 8.4512 55.1049 6.7488C54.3831 5.04639 52.9996 3.89119 50.9544 3.28319C48.9092 2.55359 45.6609 2.18879 41.2096 2.18879C40.969 2.18879 40.8487 1.82399 40.8487 1.0944C40.8487 0.364799 40.969 0 41.2096 0L50.2325 0.182398C55.2854 0.425595 59.436 0.547193 62.6842 0.547193C66.1731 0.547193 70.444 0.425595 75.4968 0.182398L84.3393 0C84.5799 0 84.7002 0.364799 84.7002 1.0944C84.7002 1.82399 84.5799 2.18879 84.3393 2.18879C80.0083 2.18879 76.76 2.55359 74.5945 3.28319C72.5493 3.89119 71.1658 5.10719 70.444 6.9312C69.7221 8.6336 69.3612 11.3088 69.3612 14.9568V98.496Z" fill="black"/>
<path d="M125.151 111.811C125.512 111.811 125.693 112.176 125.693 112.906C125.693 113.635 125.512 114 125.151 114C121.301 114 118.294 113.939 116.128 113.818L103.316 113.635L89.4203 113.818C87.3751 113.939 84.548 114 80.9388 114C80.5779 114 80.3974 113.635 80.3974 112.906C80.3974 112.176 80.5779 111.811 80.9388 111.811C85.6307 111.811 88.9993 111.507 91.0445 110.899C93.21 110.291 94.6537 109.136 95.3755 107.434C96.2176 105.61 96.6387 102.874 96.6387 99.2256V56.7264H29.3275V99.2256C29.3275 102.874 29.6884 105.61 30.4102 107.434C31.2524 109.136 32.6961 110.291 34.7413 110.899C36.9068 111.507 40.3355 111.811 45.0274 111.811C45.268 111.811 45.3883 112.176 45.3883 112.906C45.3883 113.635 45.268 114 45.0274 114C41.1776 114 38.17 113.939 36.0045 113.818L22.4701 113.635L9.83792 113.818C7.67241 113.939 4.60461 114 0.634508 114C0.393896 114 0.27359 113.635 0.27359 112.906C0.27359 112.176 0.393896 111.811 0.634508 111.811C5.20614 111.811 8.51455 111.507 10.5598 110.899C12.7253 110.291 14.1689 109.136 14.8908 107.434C15.7329 105.61 16.154 102.874 16.154 99.2256V14.7744C16.154 11.1264 15.7329 8.4512 14.8908 6.7488C14.1689 5.04639 12.7253 3.89119 10.5598 3.28319C8.51455 2.55359 5.26629 2.18879 0.814967 2.18879C0.574355 2.18879 0.454049 1.82399 0.454049 1.0944C0.454049 0.364799 0.574355 0 0.814967 0L10.0184 0.182398C15.0712 0.425595 19.2218 0.547193 22.4701 0.547193C26.0792 0.547193 30.6509 0.425595 36.1849 0.182398L45.0274 0C45.268 0 45.3883 0.364799 45.3883 1.0944C45.3883 1.82399 45.268 2.18879 45.0274 2.18879C40.4558 2.18879 37.0872 2.55359 34.9217 3.28319C32.7562 4.0128 31.2524 5.2896 30.4102 7.1136C29.6884 8.816 29.3275 11.4912 29.3275 15.1392V52.7136H96.6387V15.1392C96.6387 11.4912 96.2176 8.816 95.3755 7.1136C94.6537 5.2896 93.21 4.0128 91.0445 3.28319C88.879 2.55359 85.5104 2.18879 80.9388 2.18879C80.5779 2.18879 80.3974 1.82399 80.3974 1.0944C80.3974 0.364799 80.5779 0 80.9388 0L89.4203 0.182398C94.7138 0.425595 99.3456 0.547193 103.316 0.547193C106.564 0.547193 110.835 0.425595 116.128 0.182398L125.151 0C125.512 0 125.693 0.364799 125.693 1.0944C125.693 1.82399 125.512 2.18879 125.151 2.18879C120.58 2.18879 117.211 2.55359 115.046 3.28319C113 3.89119 111.557 5.04639 110.715 6.7488C109.993 8.4512 109.632 11.1264 109.632 14.7744V99.2256C109.632 102.874 109.993 105.61 110.715 107.434C111.557 109.136 113 110.291 115.046 110.899C117.211 111.507 120.58 111.811 125.151 111.811Z" fill="black"/>
</svg>
